<svg width="125" height="125" viewBox="0 0 125 125" fill="none" xmlns="http://www.w3.org/2000/svg">
  <g id="diceSpinning">
    <path id="cube" d="M112 8C114.209 8 116 9.79086 116 12V112C116 114.209 114.209 116 112 116H12C9.79086 116 8 114.209 8 112V12C8 9.79086 9.79086 8 12 8H112ZM16 108H108V16H16V108Z" fill="#D9D9D9" fill-opacity="0.3" >
      <animateTransform
      attributeName="transform"
      attributeType="XML"
      type="rotate"
      values="-5 60 60; 5 60 60; -5 60 60"
      dur="1s"
      repeatCount="indefinite"/>
    </path>
    
    <path id="spiral" d="M30 69.7139C30 77.1671 33.4766 83.6067 39.54 88.0928C45.5427 92.5338 53.9681 95 63.9893 95C74.1111 94.9999 82.1802 92.1174 87.7363 86.8125C93.3034 81.497 96 74.0796 96 65.7139C95.9997 48.3647 78.4143 29.0001 51.7402 29L51.7402 35C75.6541 35.0001 89.9997 52.2061 90 65.7139C90 72.7767 87.7509 78.5024 83.5928 82.4727C79.4237 86.4533 72.988 88.9999 63.9893 89C54.8896 89 47.82 86.7554 43.1084 83.2695C38.4576 79.8286 36 75.1242 36 69.7139C36 63.1622 36.4451 58.649 38.4043 55.6895C40.129 53.084 43.5687 51 51.7402 51C59.7988 51.0001 65.0679 53.2528 68.2793 56.0918C71.5022 58.941 72.8573 62.5482 72.8574 65.7139C72.8574 66.0139 72.7255 66.6393 72.2031 67.5723C71.7005 68.4699 70.9351 69.4735 69.9502 70.4746C67.9571 72.5005 65.3436 74.2373 62.8779 75.0322C60.4012 75.8307 58.6388 75.5423 57.4795 74.5322C56.1969 73.4146 54.7402 70.6628 54.7402 64.4502L48.7402 64.4502C48.7402 71.294 50.2978 76.2328 53.5371 79.0557C56.8997 81.9859 61.1663 81.8883 64.7187 80.7432C68.2823 79.5943 71.6987 77.2531 74.2275 74.6826C75.5035 73.3857 76.6222 71.9615 77.4385 70.5039C78.235 69.0815 78.8574 67.4225 78.8574 65.7139C78.8573 60.8452 76.7766 55.5957 72.2529 51.5967C67.7174 47.5872 60.9278 45.0001 51.7402 45C42.6655 45 36.7351 47.3414 33.4014 52.377C30.3023 57.0585 30 63.4024 30 69.7139Z" fill="#D9D9D9" fill-opacity="0.5">
      <animateTransform
      attributeName="transform"
      attributeType="XML"
      type="rotate"
      from="0 63 63"
      to="360 63 63"
      dur="1s"
      repeatCount="indefinite"/>
    </path>
  </g>
</svg>
