<svg width="125" height="125" viewBox="0 0 125 125" fill="none" xmlns="http://www.w3.org/2000/svg">
<path d="M112 8L112.206 8.00488C114.319 8.11211 116 9.85996 116 12V112C116 114.209 114.209 116 112 116H12C9.79086 116 8 114.209 8 112V12L8.00488 11.7939C8.11211 9.68056 9.85996 8 12 8H112ZM16 108H108V16H16V108Z" fill="#D9D9D9" fill-opacity="0.1"/>
<path d="M62 61.9167C58.3333 61.9167 55.3333 60.75 53 58.4167C50.6666 56.0834 49.5 53.0834 49.5 49.4167C49.5 45.75 50.6666 42.75 53 40.4167C55.3333 38.0834 58.3333 36.9167 62 36.9167C65.6666 36.9167 68.6666 38.0834 71 40.4167C73.3333 42.75 74.5 45.75 74.5 49.4167C74.5 53.0834 73.3333 56.0834 71 58.4167C68.6666 60.75 65.6666 61.9167 62 61.9167ZM35.3333 88.6667V80.8334C35.3333 78.7222 35.8611 76.9167 36.9166 75.4167C37.9722 73.9167 39.3333 72.7778 41 72C44.7222 70.3334 48.2916 69.0834 51.7083 68.25C55.125 67.4167 58.5555 67 62 67C65.4444 67 68.8611 67.4306 72.25 68.2917C75.6389 69.1528 79.1944 70.3889 82.9166 72C84.6389 72.7778 86.0278 73.9167 87.0833 75.4167C88.1389 76.9167 88.6666 78.7222 88.6666 80.8334V88.6667H35.3333Z" fill="#D9D9D9" fill-opacity="0.1"/>
</svg>
